<?xml version="1.0" encoding="UTF-8" standalone="no"?><svg xmlns="http://www.w3.org/2000/svg" xmlns:xlink="http://www.w3.org/1999/xlink" contentScriptType="application/ecmascript" contentStyleType="text/css" height="702px" preserveAspectRatio="none" style="width:1060px;height:702px;" version="1.1" viewBox="0 0 1060 702" width="1060.875px" zoomAndPan="magnify"><defs><filter height="300%" id="f12zu6y4659ldc" width="300%" x="-1" y="-1"><feGaussianBlur result="blurOut" stdDeviation="2.25"/><feColorMatrix in="blurOut" result="blurOut2" type="matrix" values="0 0 0 0 0 0 0 0 0 0 0 0 0 0 0 0 0 0 .4 0"/><feOffset dx="4.5" dy="4.5" in="blurOut2" result="blurOut3"/><feBlend in="SourceGraphic" in2="blurOut3" mode="normal"/></filter></defs><g><!--MD5=[90e811f9ee2f0f0860e59b3325ff0af0]
cluster com.tieto.tni.rest.controller--><polygon fill="#FFFFFF" filter="url(#f12zu6y4659ldc)" points="303.75,310.5,526.5,310.5,534.375,338.7601,537.75,338.7601,537.75,546.75,303.75,546.75,303.75,310.5" style="stroke: #000000; stroke-width: 1.6875;"/><line style="stroke: #000000; stroke-width: 1.6875;" x1="303.75" x2="534.375" y1="338.7601" y2="338.7601"/><text fill="#000000" font-family="sans-serif" font-size="15.75" font-weight="bold" lengthAdjust="spacingAndGlyphs" textLength="216" x="308.25" y="330.7994">com.tieto.tni.rest.controller</text><!--MD5=[19375db8ff6896a80a498f3d8f9ad6fa]
cluster com.tieto.tni.rest.entity--><polygon fill="#FFFFFF" filter="url(#f12zu6y4659ldc)" points="128.25,168.75,317.25,168.75,325.125,197.0101,546.75,197.0101,546.75,283.5,128.25,283.5,128.25,168.75" style="stroke: #000000; stroke-width: 1.6875;"/><line style="stroke: #000000; stroke-width: 1.6875;" x1="128.25" x2="325.125" y1="197.0101" y2="197.0101"/><text fill="#000000" font-family="sans-serif" font-size="15.75" font-weight="bold" lengthAdjust="spacingAndGlyphs" textLength="182.25" x="132.75" y="189.0494">com.tieto.tni.rest.entity</text><!--MD5=[315989f68566ea5745dec30e8dfbe07e]
cluster com.tieto.tni.rest.service--><polygon fill="#FFFFFF" filter="url(#f12zu6y4659ldc)" points="573.75,168.75,778.5,168.75,786.375,197.0101,789.75,197.0101,789.75,425.25,573.75,425.25,573.75,168.75" style="stroke: #000000; stroke-width: 1.6875;"/><line style="stroke: #000000; stroke-width: 1.6875;" x1="573.75" x2="786.375" y1="197.0101" y2="197.0101"/><text fill="#000000" font-family="sans-serif" font-size="15.75" font-weight="bold" lengthAdjust="spacingAndGlyphs" textLength="198" x="578.25" y="189.0494">com.tieto.tni.rest.service</text><!--MD5=[5b2f17e620487df8b20a1bd63a5f555e]
cluster com.tieto.tni.rest.mapper--><polygon fill="#FFFFFF" filter="url(#f12zu6y4659ldc)" points="816.75,168.75,1021.5,168.75,1029.375,197.0101,1032.75,197.0101,1032.75,283.5,816.75,283.5,816.75,168.75" style="stroke: #000000; stroke-width: 1.6875;"/><line style="stroke: #000000; stroke-width: 1.6875;" x1="816.75" x2="1029.375" y1="197.0101" y2="197.0101"/><text fill="#000000" font-family="sans-serif" font-size="15.75" font-weight="bold" lengthAdjust="spacingAndGlyphs" textLength="198" x="821.25" y="189.0494">com.tieto.tni.rest.mapper</text><!--MD5=[760471a016b7c8a4356b85bd778fc050]
cluster com.tieto.tni.rest.exception--><polygon fill="#FFFFFF" filter="url(#f12zu6y4659ldc)" points="596.25,27,820.125,27,828,55.2601,831.375,55.2601,831.375,141.75,596.25,141.75,596.25,27" style="stroke: #000000; stroke-width: 1.6875;"/><line style="stroke: #000000; stroke-width: 1.6875;" x1="596.25" x2="828" y1="55.2601" y2="55.2601"/><text fill="#000000" font-family="sans-serif" font-size="15.75" font-weight="bold" lengthAdjust="spacingAndGlyphs" textLength="217.125" x="600.75" y="47.2994">com.tieto.tni.rest.exception</text><!--MD5=[5f4ae2d36ec205d9fae94c2d4744ca42]
cluster com.tieto.tni.rest.docs--><polygon fill="#FFFFFF" filter="url(#f12zu6y4659ldc)" points="24.75,573.75,208.125,573.75,216,602.0101,219.375,602.0101,219.375,688.5,24.75,688.5,24.75,573.75" style="stroke: #000000; stroke-width: 1.6875;"/><line style="stroke: #000000; stroke-width: 1.6875;" x1="24.75" x2="216" y1="602.0101" y2="602.0101"/><text fill="#000000" font-family="sans-serif" font-size="15.75" font-weight="bold" lengthAdjust="spacingAndGlyphs" textLength="176.625" x="29.25" y="594.0494">com.tieto.tni.rest.docs</text><!--MD5=[72aae542e16778079a8b5220d144fc88]
cluster com.tieto.tni.rest.security--><polygon fill="#FFFFFF" filter="url(#f12zu6y4659ldc)" points="246.375,573.75,454.5,573.75,462.375,602.0101,465.75,602.0101,465.75,688.5,246.375,688.5,246.375,573.75" style="stroke: #000000; stroke-width: 1.6875;"/><line style="stroke: #000000; stroke-width: 1.6875;" x1="246.375" x2="462.375" y1="602.0101" y2="602.0101"/><text fill="#000000" font-family="sans-serif" font-size="15.75" font-weight="bold" lengthAdjust="spacingAndGlyphs" textLength="201.375" x="250.875" y="594.0494">com.tieto.tni.rest.security</text><!--MD5=[cb780c8450ffc95ab7731d101f1a9875]
cluster com.tieto.tni.rest.log--><polygon fill="#FFFFFF" filter="url(#f12zu6y4659ldc)" points="492.75,573.75,662.625,573.75,670.5,602.0101,693,602.0101,693,688.5,492.75,688.5,492.75,573.75" style="stroke: #000000; stroke-width: 1.6875;"/><line style="stroke: #000000; stroke-width: 1.6875;" x1="492.75" x2="670.5" y1="602.0101" y2="602.0101"/><text fill="#000000" font-family="sans-serif" font-size="15.75" font-weight="bold" lengthAdjust="spacingAndGlyphs" textLength="163.125" x="497.25" y="594.0494">com.tieto.tni.rest.log</text><!--MD5=[8aaaed0fecc12e1e840ba0bb0328dbd6]
cluster com.tieto.tni.rest.util--><polygon fill="#FFFFFF" filter="url(#f12zu6y4659ldc)" points="720,573.75,889.875,573.75,897.75,602.0101,1036.125,602.0101,1036.125,688.5,720,688.5,720,573.75" style="stroke: #000000; stroke-width: 1.6875;"/><line style="stroke: #000000; stroke-width: 1.6875;" x1="720" x2="897.75" y1="602.0101" y2="602.0101"/><text fill="#000000" font-family="sans-serif" font-size="15.75" font-weight="bold" lengthAdjust="spacingAndGlyphs" textLength="163.125" x="724.5" y="594.0494">com.tieto.tni.rest.util</text><!--MD5=[c9ec7b297a246eed5a377a5135822b4b]
class BaseController--><rect fill="#FEFECE" filter="url(#f12zu6y4659ldc)" height="54" id="BaseController" style="stroke: #A80036; stroke-width: 1.6875;" width="128.25" x="324" y="353.25"/><ellipse cx="340.875" cy="371.25" fill="#A9DCDF" rx="12.375" ry="12.375" style="stroke: #A80036; stroke-width: 1.125;"/><path d="M342.0879,372.375 L338.9238,372.375 L338.0098,374.1855 Q337.957,374.3613 337.957,374.5195 Q337.957,374.7305 338.0098,374.8535 Q338.0625,374.9766 338.3086,374.9766 L338.9238,374.9766 L338.9238,376.875 L335.25,376.875 L335.25,374.9766 L335.8828,374.9766 Q336.1289,374.9766 336.252,374.9063 Q336.3926,374.8359 336.4453,374.625 L339.9258,363.7266 L341.4727,363.7266 L344.8828,374.502 Q344.9883,374.7656 345.1465,374.8711 Q345.3047,374.9766 345.5156,374.9766 L346.1484,374.9766 L346.1484,376.875 L342.0352,376.875 L342.0352,374.9766 L342.7207,374.9766 Q342.9141,374.9766 342.9141,374.959 Q342.9316,374.9414 342.9316,374.8711 Q342.9316,374.6777 342.8965,374.5723 L342.0879,372.375 Z M336.2168,375.75 L336.2168,375.75 Z M336.9727,375.75 L336.9727,375.75 Z M342.2813,375.75 L342.2813,375.75 Z M343.5469,375.75 L343.5469,375.75 Z M340.4004,366.082 L340.4883,366.082 L339.5215,370.4766 L341.7188,370.4766 L340.4004,366.082 Z "/><text fill="#000000" font-family="sans-serif" font-size="13.5" font-style="italic" lengthAdjust="spacingAndGlyphs" textLength="92.25" x="356.625" y="377.5023">BaseController</text><line style="stroke: #A80036; stroke-width: 1.6875;" x1="325.125" x2="451.125" y1="389.25" y2="389.25"/><line style="stroke: #A80036; stroke-width: 1.6875;" x1="325.125" x2="451.125" y1="398.25" y2="398.25"/><!--MD5=[df605b457a6ffb79c24b873033156316]
class AlarmController--><rect fill="#FEFECE" filter="url(#f12zu6y4659ldc)" height="54" id="AlarmController" style="stroke: #A80036; stroke-width: 1.6875;" width="132.75" x="322.875" y="474.75"/><ellipse cx="339.75" cy="492.75" fill="#ADD1B2" rx="12.375" ry="12.375" style="stroke: #A80036; stroke-width: 1.125;"/><path d="M339.3984,499.5 Q337.2188,499.5 335.9531,497.9004 Q334.6875,496.2832 334.6875,492.9609 Q334.6875,490.1484 336.0234,488.25 Q337.3594,486.3516 339.6797,486.3516 Q340.1895,486.3516 340.6816,486.3516 Q341.1738,486.3516 341.5254,486.3516 Q341.8066,486.3516 341.9824,486.3516 Q342.1758,486.3516 342.6328,486.3516 L343.4238,490.5 L342.2285,490.5 Q341.7363,489.2695 341.0859,488.7598 Q340.4531,488.25 339.416,488.25 Q338.1152,488.25 337.3418,489.5859 Q336.5859,490.9043 336.5859,492.9609 Q336.5859,495.2285 337.166,496.4238 Q337.7637,497.6016 339.3457,497.6016 Q340.3828,497.6016 341.1035,496.9688 Q341.8418,496.3184 342.2285,494.7539 L343.3887,495.334 Q342.9492,497.3027 341.8945,498.4102 Q340.8398,499.5 339.3984,499.5 Z "/><text fill="#000000" font-family="sans-serif" font-size="13.5" lengthAdjust="spacingAndGlyphs" textLength="96.75" x="355.5" y="499.0023">AlarmController</text><line style="stroke: #A80036; stroke-width: 1.6875;" x1="324" x2="454.5" y1="510.75" y2="510.75"/><line style="stroke: #A80036; stroke-width: 1.6875;" x1="324" x2="454.5" y1="519.75" y2="519.75"/><!--MD5=[78db38bbc9e86f0d611c5198b76d70dc]
class Alarm--><rect fill="#FEFECE" filter="url(#f12zu6y4659ldc)" height="54" id="Alarm" style="stroke: #A80036; stroke-width: 1.6875;" width="72" x="146.25" y="211.5"/><ellipse cx="163.125" cy="229.5" fill="#ADD1B2" rx="12.375" ry="12.375" style="stroke: #A80036; stroke-width: 1.125;"/><path d="M162.7734,236.25 Q160.5938,236.25 159.3281,234.6504 Q158.0625,233.0332 158.0625,229.7109 Q158.0625,226.8984 159.3984,225 Q160.7344,223.1016 163.0547,223.1016 Q163.5645,223.1016 164.0566,223.1016 Q164.5488,223.1016 164.9004,223.1016 Q165.1816,223.1016 165.3574,223.1016 Q165.5508,223.1016 166.0078,223.1016 L166.7988,227.25 L165.6035,227.25 Q165.1113,226.0195 164.4609,225.5098 Q163.8281,225 162.791,225 Q161.4902,225 160.7168,226.3359 Q159.9609,227.6543 159.9609,229.7109 Q159.9609,231.9785 160.541,233.1738 Q161.1387,234.3516 162.7207,234.3516 Q163.7578,234.3516 164.4785,233.7188 Q165.2168,233.0684 165.6035,231.5039 L166.7637,232.084 Q166.3242,234.0527 165.2695,235.1602 Q164.2148,236.25 162.7734,236.25 Z "/><text fill="#000000" font-family="sans-serif" font-size="13.5" lengthAdjust="spacingAndGlyphs" textLength="36" x="178.875" y="235.7523">Alarm</text><line style="stroke: #A80036; stroke-width: 1.6875;" x1="147.375" x2="217.125" y1="247.5" y2="247.5"/><line style="stroke: #A80036; stroke-width: 1.6875;" x1="147.375" x2="217.125" y1="256.5" y2="256.5"/><!--MD5=[aed0c6ff41587e8ee5f61d712e37db3e]
class AlarmStatus--><rect fill="#FEFECE" filter="url(#f12zu6y4659ldc)" height="54" id="AlarmStatus" style="stroke: #A80036; stroke-width: 1.6875;" width="111.375" x="258.1875" y="211.5"/><ellipse cx="275.0625" cy="229.5" fill="#EB937F" rx="12.375" ry="12.375" style="stroke: #A80036; stroke-width: 1.125;"/><path d="M270.6328,225 L270.6328,223.1016 L279.2988,223.1016 L280.5293,226.125 L279.4395,226.125 Q278.7012,225.5098 277.9805,225.2637 Q277.2598,225 276.3984,225 L273.9727,225 Q273.7266,225 273.6035,225 Q273.498,225 273.5859,225 L273.5859,227.6016 L275.2383,227.6016 Q275.748,227.6016 275.959,227.3027 Q276.1875,227.0039 276.1875,226.2656 L276.1875,225.3516 L278.0859,225.3516 L278.0859,231.75 L276.1875,231.75 L276.1875,231.0293 Q276.1875,230.2207 275.959,229.8691 Q275.7305,229.5 275.2383,229.5 L273.5859,229.5 L273.5859,234.1934 Q273.5859,234.2637 273.6563,234.3164 Q273.7266,234.3516 273.9375,234.3516 L276.0996,234.3516 Q277.3652,234.3516 278.0684,233.877 Q278.7715,233.3848 279.3164,232.1016 L280.4414,232.1016 L279.3691,236.25 L270.5625,236.25 L270.5625,234.3516 L271.3887,234.3516 Q271.6348,234.3516 271.6523,234.334 Q271.6875,234.3164 271.6875,234.2285 L271.6875,225.123 Q271.6875,225.0352 271.6523,225.0176 Q271.6348,225 271.3887,225 L270.6328,225 Z "/><text fill="#000000" font-family="sans-serif" font-size="13.5" lengthAdjust="spacingAndGlyphs" textLength="75.375" x="290.8125" y="235.7523">AlarmStatus</text><line style="stroke: #A80036; stroke-width: 1.6875;" x1="259.3125" x2="368.4375" y1="247.5" y2="247.5"/><line style="stroke: #A80036; stroke-width: 1.6875;" x1="259.3125" x2="368.4375" y1="256.5" y2="256.5"/><!--MD5=[56071c4530f8181b4daf2c98173312ca]
class AlarmSeverity--><rect fill="#FEFECE" filter="url(#f12zu6y4659ldc)" height="54" id="AlarmSeverity" style="stroke: #A80036; stroke-width: 1.6875;" width="119.25" x="409.5" y="211.5"/><ellipse cx="426.375" cy="229.5" fill="#EB937F" rx="12.375" ry="12.375" style="stroke: #A80036; stroke-width: 1.125;"/><path d="M421.9453,225 L421.9453,223.1016 L430.6113,223.1016 L431.8418,226.125 L430.752,226.125 Q430.0137,225.5098 429.293,225.2637 Q428.5723,225 427.7109,225 L425.2852,225 Q425.0391,225 424.916,225 Q424.8105,225 424.8984,225 L424.8984,227.6016 L426.5508,227.6016 Q427.0605,227.6016 427.2715,227.3027 Q427.5,227.0039 427.5,226.2656 L427.5,225.3516 L429.3984,225.3516 L429.3984,231.75 L427.5,231.75 L427.5,231.0293 Q427.5,230.2207 427.2715,229.8691 Q427.043,229.5 426.5508,229.5 L424.8984,229.5 L424.8984,234.1934 Q424.8984,234.2637 424.9688,234.3164 Q425.0391,234.3516 425.25,234.3516 L427.4121,234.3516 Q428.6777,234.3516 429.3809,233.877 Q430.084,233.3848 430.6289,232.1016 L431.7539,232.1016 L430.6816,236.25 L421.875,236.25 L421.875,234.3516 L422.7012,234.3516 Q422.9473,234.3516 422.9648,234.334 Q423,234.3164 423,234.2285 L423,225.123 Q423,225.0352 422.9648,225.0176 Q422.9473,225 422.7012,225 L421.9453,225 Z "/><text fill="#000000" font-family="sans-serif" font-size="13.5" lengthAdjust="spacingAndGlyphs" textLength="83.25" x="442.125" y="235.7523">AlarmSeverity</text><line style="stroke: #A80036; stroke-width: 1.6875;" x1="410.625" x2="527.625" y1="247.5" y2="247.5"/><line style="stroke: #A80036; stroke-width: 1.6875;" x1="410.625" x2="527.625" y1="256.5" y2="256.5"/><!--MD5=[2cc06513aa5e909e3a4c8a083fe5a1d1]
class AlarmService--><rect fill="#FEFECE" filter="url(#f12zu6y4659ldc)" height="54" id="AlarmService" style="stroke: #A80036; stroke-width: 1.6875;" width="119.25" x="594" y="211.5"/><ellipse cx="610.875" cy="229.5" fill="#B4A7E5" rx="12.375" ry="12.375" style="stroke: #A80036; stroke-width: 1.125;"/><path d="M607.3594,225 L607.3594,223.1016 L614.0391,223.1016 L614.0391,225 L611.9297,225 Q611.7539,225 611.7012,225.0352 Q611.6484,225.0703 611.6484,225.123 L611.6484,234.2285 Q611.6484,234.2813 611.7012,234.3164 Q611.7539,234.3516 611.9297,234.3516 L614.0391,234.3516 L614.0391,236.25 L607.3594,236.25 L607.3594,234.3516 L609.4688,234.3516 Q609.6973,234.3516 609.7148,234.334 Q609.75,234.3164 609.75,234.2285 L609.75,225.123 Q609.75,225.0352 609.7148,225.0176 Q609.6973,225 609.4688,225 L607.3594,225 Z "/><text fill="#000000" font-family="sans-serif" font-size="13.5" font-style="italic" lengthAdjust="spacingAndGlyphs" textLength="83.25" x="626.625" y="235.7523">AlarmService</text><line style="stroke: #A80036; stroke-width: 1.6875;" x1="595.125" x2="712.125" y1="247.5" y2="247.5"/><line style="stroke: #A80036; stroke-width: 1.6875;" x1="595.125" x2="712.125" y1="256.5" y2="256.5"/><!--MD5=[38566c502e07033e4865a68ed7e214d3]
class AlarmServiceImpl--><rect fill="#FEFECE" filter="url(#f12zu6y4659ldc)" height="54" id="AlarmServiceImpl" style="stroke: #A80036; stroke-width: 1.6875;" width="144" x="591.75" y="353.25"/><ellipse cx="608.625" cy="371.25" fill="#ADD1B2" rx="12.375" ry="12.375" style="stroke: #A80036; stroke-width: 1.125;"/><path d="M608.2734,378 Q606.0938,378 604.8281,376.4004 Q603.5625,374.7832 603.5625,371.4609 Q603.5625,368.6484 604.8984,366.75 Q606.2344,364.8516 608.5547,364.8516 Q609.0645,364.8516 609.5566,364.8516 Q610.0488,364.8516 610.4004,364.8516 Q610.6816,364.8516 610.8574,364.8516 Q611.0508,364.8516 611.5078,364.8516 L612.2988,369 L611.1035,369 Q610.6113,367.7695 609.9609,367.2598 Q609.3281,366.75 608.291,366.75 Q606.9902,366.75 606.2168,368.0859 Q605.4609,369.4043 605.4609,371.4609 Q605.4609,373.7285 606.041,374.9238 Q606.6387,376.1016 608.2207,376.1016 Q609.2578,376.1016 609.9785,375.4688 Q610.7168,374.8184 611.1035,373.2539 L612.2637,373.834 Q611.8242,375.8027 610.7695,376.9102 Q609.7148,378 608.2734,378 Z "/><text fill="#000000" font-family="sans-serif" font-size="13.5" lengthAdjust="spacingAndGlyphs" textLength="108" x="624.375" y="377.5023">AlarmServiceImpl</text><line style="stroke: #A80036; stroke-width: 1.6875;" x1="592.875" x2="734.625" y1="389.25" y2="389.25"/><line style="stroke: #A80036; stroke-width: 1.6875;" x1="592.875" x2="734.625" y1="398.25" y2="398.25"/><!--MD5=[819238802328364ea2a221322e7cc677]
class AlarmMapper--><rect fill="#FEFECE" filter="url(#f12zu6y4659ldc)" height="54" id="AlarmMapper" style="stroke: #A80036; stroke-width: 1.6875;" width="119.25" x="834.75" y="211.5"/><ellipse cx="851.625" cy="229.5" fill="#B4A7E5" rx="12.375" ry="12.375" style="stroke: #A80036; stroke-width: 1.125;"/><path d="M848.1094,225 L848.1094,223.1016 L854.7891,223.1016 L854.7891,225 L852.6797,225 Q852.5039,225 852.4512,225.0352 Q852.3984,225.0703 852.3984,225.123 L852.3984,234.2285 Q852.3984,234.2813 852.4512,234.3164 Q852.5039,234.3516 852.6797,234.3516 L854.7891,234.3516 L854.7891,236.25 L848.1094,236.25 L848.1094,234.3516 L850.2188,234.3516 Q850.4473,234.3516 850.4648,234.334 Q850.5,234.3164 850.5,234.2285 L850.5,225.123 Q850.5,225.0352 850.4648,225.0176 Q850.4473,225 850.2188,225 L848.1094,225 Z "/><text fill="#000000" font-family="sans-serif" font-size="13.5" font-style="italic" lengthAdjust="spacingAndGlyphs" textLength="83.25" x="867.375" y="235.7523">AlarmMapper</text><line style="stroke: #A80036; stroke-width: 1.6875;" x1="835.875" x2="952.875" y1="247.5" y2="247.5"/><line style="stroke: #A80036; stroke-width: 1.6875;" x1="835.875" x2="952.875" y1="256.5" y2="256.5"/><!--MD5=[45e3f7aecaaf600efa11ad5bf9b3cc20]
class ServiceException--><rect fill="#FEFECE" filter="url(#f12zu6y4659ldc)" height="54" id="ServiceException" style="stroke: #A80036; stroke-width: 1.6875;" width="140.625" x="642.9375" y="69.75"/><ellipse cx="659.8125" cy="87.75" fill="#ADD1B2" rx="12.375" ry="12.375" style="stroke: #A80036; stroke-width: 1.125;"/><path d="M659.4609,94.5 Q657.2813,94.5 656.0156,92.9004 Q654.75,91.2832 654.75,87.9609 Q654.75,85.1484 656.0859,83.25 Q657.4219,81.3516 659.7422,81.3516 Q660.252,81.3516 660.7441,81.3516 Q661.2363,81.3516 661.5879,81.3516 Q661.8691,81.3516 662.0449,81.3516 Q662.2383,81.3516 662.6953,81.3516 L663.4863,85.5 L662.291,85.5 Q661.7988,84.2695 661.1484,83.7598 Q660.5156,83.25 659.4785,83.25 Q658.1777,83.25 657.4043,84.5859 Q656.6484,85.9043 656.6484,87.9609 Q656.6484,90.2285 657.2285,91.4238 Q657.8262,92.6016 659.4082,92.6016 Q660.4453,92.6016 661.166,91.9688 Q661.9043,91.3184 662.291,89.7539 L663.4512,90.334 Q663.0117,92.3027 661.957,93.4102 Q660.9023,94.5 659.4609,94.5 Z "/><text fill="#000000" font-family="sans-serif" font-size="13.5" lengthAdjust="spacingAndGlyphs" textLength="104.625" x="675.5625" y="94.0023">ServiceException</text><line style="stroke: #A80036; stroke-width: 1.6875;" x1="644.0625" x2="782.4375" y1="105.75" y2="105.75"/><line style="stroke: #A80036; stroke-width: 1.6875;" x1="644.0625" x2="782.4375" y1="114.75" y2="114.75"/><!--MD5=[1471b56851f8524db527b92577458ddb]
class SwaggerConfig--><rect fill="#FEFECE" filter="url(#f12zu6y4659ldc)" height="54" id="SwaggerConfig" style="stroke: #A80036; stroke-width: 1.6875;" width="131.625" x="69.1875" y="616.5"/><ellipse cx="86.0625" cy="634.5" fill="#ADD1B2" rx="12.375" ry="12.375" style="stroke: #A80036; stroke-width: 1.125;"/><path d="M85.7109,641.25 Q83.5313,641.25 82.2656,639.6504 Q81,638.0332 81,634.7109 Q81,631.8984 82.3359,630 Q83.6719,628.1016 85.9922,628.1016 Q86.502,628.1016 86.9941,628.1016 Q87.4863,628.1016 87.8379,628.1016 Q88.1191,628.1016 88.2949,628.1016 Q88.4883,628.1016 88.9453,628.1016 L89.7363,632.25 L88.541,632.25 Q88.0488,631.0195 87.3984,630.5098 Q86.7656,630 85.7285,630 Q84.4277,630 83.6543,631.3359 Q82.8984,632.6543 82.8984,634.7109 Q82.8984,636.9785 83.4785,638.1738 Q84.0762,639.3516 85.6582,639.3516 Q86.6953,639.3516 87.416,638.7188 Q88.1543,638.0684 88.541,636.5039 L89.7012,637.084 Q89.2617,639.0527 88.207,640.1602 Q87.1523,641.25 85.7109,641.25 Z "/><text fill="#000000" font-family="sans-serif" font-size="13.5" lengthAdjust="spacingAndGlyphs" textLength="95.625" x="101.8125" y="640.7523">SwaggerConfig</text><line style="stroke: #A80036; stroke-width: 1.6875;" x1="70.3125" x2="199.6875" y1="652.5" y2="652.5"/><line style="stroke: #A80036; stroke-width: 1.6875;" x1="70.3125" x2="199.6875" y1="661.5" y2="661.5"/><!--MD5=[06793f366fa0fe742703541b0bcb23f0]
class SecurityConfig--><rect fill="#FEFECE" filter="url(#f12zu6y4659ldc)" height="54" id="SecurityConfig" style="stroke: #A80036; stroke-width: 1.6875;" width="124.875" x="322.3125" y="616.5"/><ellipse cx="339.1875" cy="634.5" fill="#ADD1B2" rx="12.375" ry="12.375" style="stroke: #A80036; stroke-width: 1.125;"/><path d="M338.8359,641.25 Q336.6563,641.25 335.3906,639.6504 Q334.125,638.0332 334.125,634.7109 Q334.125,631.8984 335.4609,630 Q336.7969,628.1016 339.1172,628.1016 Q339.627,628.1016 340.1191,628.1016 Q340.6113,628.1016 340.9629,628.1016 Q341.2441,628.1016 341.4199,628.1016 Q341.6133,628.1016 342.0703,628.1016 L342.8613,632.25 L341.666,632.25 Q341.1738,631.0195 340.5234,630.5098 Q339.8906,630 338.8535,630 Q337.5527,630 336.7793,631.3359 Q336.0234,632.6543 336.0234,634.7109 Q336.0234,636.9785 336.6035,638.1738 Q337.2012,639.3516 338.7832,639.3516 Q339.8203,639.3516 340.541,638.7188 Q341.2793,638.0684 341.666,636.5039 L342.8262,637.084 Q342.3867,639.0527 341.332,640.1602 Q340.2773,641.25 338.8359,641.25 Z "/><text fill="#000000" font-family="sans-serif" font-size="13.5" lengthAdjust="spacingAndGlyphs" textLength="88.875" x="354.9375" y="640.7523">SecurityConfig</text><line style="stroke: #A80036; stroke-width: 1.6875;" x1="323.4375" x2="446.0625" y1="652.5" y2="652.5"/><line style="stroke: #A80036; stroke-width: 1.6875;" x1="323.4375" x2="446.0625" y1="661.5" y2="661.5"/><!--MD5=[199e1d6b6e0f73e67637a1c338c40220]
class TraceLoggingAspect--><rect fill="#FEFECE" filter="url(#f12zu6y4659ldc)" height="54" id="TraceLoggingAspect" style="stroke: #A80036; stroke-width: 1.6875;" width="163.125" x="511.3125" y="616.5"/><ellipse cx="528.1875" cy="634.5" fill="#ADD1B2" rx="12.375" ry="12.375" style="stroke: #A80036; stroke-width: 1.125;"/><path d="M527.8359,641.25 Q525.6563,641.25 524.3906,639.6504 Q523.125,638.0332 523.125,634.7109 Q523.125,631.8984 524.4609,630 Q525.7969,628.1016 528.1172,628.1016 Q528.627,628.1016 529.1191,628.1016 Q529.6113,628.1016 529.9629,628.1016 Q530.2441,628.1016 530.4199,628.1016 Q530.6133,628.1016 531.0703,628.1016 L531.8613,632.25 L530.666,632.25 Q530.1738,631.0195 529.5234,630.5098 Q528.8906,630 527.8535,630 Q526.5527,630 525.7793,631.3359 Q525.0234,632.6543 525.0234,634.7109 Q525.0234,636.9785 525.6035,638.1738 Q526.2012,639.3516 527.7832,639.3516 Q528.8203,639.3516 529.541,638.7188 Q530.2793,638.0684 530.666,636.5039 L531.8262,637.084 Q531.3867,639.0527 530.332,640.1602 Q529.2773,641.25 527.8359,641.25 Z "/><text fill="#000000" font-family="sans-serif" font-size="13.5" lengthAdjust="spacingAndGlyphs" textLength="127.125" x="543.9375" y="640.7523">TraceLoggingAspect</text><line style="stroke: #A80036; stroke-width: 1.6875;" x1="512.4375" x2="673.3125" y1="652.5" y2="652.5"/><line style="stroke: #A80036; stroke-width: 1.6875;" x1="512.4375" x2="673.3125" y1="661.5" y2="661.5"/><!--MD5=[4be9829e953f850cb5ea1ac21b3195a6]
class DateFormatter--><rect fill="#FEFECE" filter="url(#f12zu6y4659ldc)" height="54" id="DateFormatter" style="stroke: #A80036; stroke-width: 1.6875;" width="124.875" x="892.6875" y="616.5"/><ellipse cx="909.5625" cy="634.5" fill="#ADD1B2" rx="12.375" ry="12.375" style="stroke: #A80036; stroke-width: 1.125;"/><path d="M909.2109,641.25 Q907.0313,641.25 905.7656,639.6504 Q904.5,638.0332 904.5,634.7109 Q904.5,631.8984 905.8359,630 Q907.1719,628.1016 909.4922,628.1016 Q910.002,628.1016 910.4941,628.1016 Q910.9863,628.1016 911.3379,628.1016 Q911.6191,628.1016 911.7949,628.1016 Q911.9883,628.1016 912.4453,628.1016 L913.2363,632.25 L912.041,632.25 Q911.5488,631.0195 910.8984,630.5098 Q910.2656,630 909.2285,630 Q907.9277,630 907.1543,631.3359 Q906.3984,632.6543 906.3984,634.7109 Q906.3984,636.9785 906.9785,638.1738 Q907.5762,639.3516 909.1582,639.3516 Q910.1953,639.3516 910.916,638.7188 Q911.6543,638.0684 912.041,636.5039 L913.2012,637.084 Q912.7617,639.0527 911.707,640.1602 Q910.6523,641.25 909.2109,641.25 Z "/><text fill="#000000" font-family="sans-serif" font-size="13.5" lengthAdjust="spacingAndGlyphs" textLength="88.875" x="925.3125" y="640.7523">DateFormatter</text><line style="stroke: #A80036; stroke-width: 1.6875;" x1="893.8125" x2="1016.4375" y1="652.5" y2="652.5"/><line style="stroke: #A80036; stroke-width: 1.6875;" x1="893.8125" x2="1016.4375" y1="661.5" y2="661.5"/><!--MD5=[87b6f056a3cb0eae748711c7431bf471]
class JwtTokenUtil--><rect fill="#FEFECE" filter="url(#f12zu6y4659ldc)" height="54" id="JwtTokenUtil" style="stroke: #A80036; stroke-width: 1.6875;" width="114.75" x="738" y="616.5"/><ellipse cx="754.875" cy="634.5" fill="#ADD1B2" rx="12.375" ry="12.375" style="stroke: #A80036; stroke-width: 1.125;"/><path d="M754.5234,641.25 Q752.3438,641.25 751.0781,639.6504 Q749.8125,638.0332 749.8125,634.7109 Q749.8125,631.8984 751.1484,630 Q752.4844,628.1016 754.8047,628.1016 Q755.3145,628.1016 755.8066,628.1016 Q756.2988,628.1016 756.6504,628.1016 Q756.9316,628.1016 757.1074,628.1016 Q757.3008,628.1016 757.7578,628.1016 L758.5488,632.25 L757.3535,632.25 Q756.8613,631.0195 756.2109,630.5098 Q755.5781,630 754.541,630 Q753.2402,630 752.4668,631.3359 Q751.7109,632.6543 751.7109,634.7109 Q751.7109,636.9785 752.291,638.1738 Q752.8887,639.3516 754.4707,639.3516 Q755.5078,639.3516 756.2285,638.7188 Q756.9668,638.0684 757.3535,636.5039 L758.5137,637.084 Q758.0742,639.0527 757.0195,640.1602 Q755.9648,641.25 754.5234,641.25 Z "/><text fill="#000000" font-family="sans-serif" font-size="13.5" lengthAdjust="spacingAndGlyphs" textLength="78.75" x="770.625" y="640.7523">JwtTokenUtil</text><line style="stroke: #A80036; stroke-width: 1.6875;" x1="739.125" x2="851.625" y1="652.5" y2="652.5"/><line style="stroke: #A80036; stroke-width: 1.6875;" x1="739.125" x2="851.625" y1="661.5" y2="661.5"/><!--MD5=[7484453e9dc2ffaf394aab5991594b98]
class ResponseEntity--><rect fill="#FEFECE" filter="url(#f12zu6y4659ldc)" height="54" id="ResponseEntity" style="stroke: #A80036; stroke-width: 1.6875;" width="133.875" x="150.1875" y="353.25"/><ellipse cx="167.0625" cy="371.25" fill="#ADD1B2" rx="12.375" ry="12.375" style="stroke: #A80036; stroke-width: 1.125;"/><path d="M166.7109,378 Q164.5313,378 163.2656,376.4004 Q162,374.7832 162,371.4609 Q162,368.6484 163.3359,366.75 Q164.6719,364.8516 166.9922,364.8516 Q167.502,364.8516 167.9941,364.8516 Q168.4863,364.8516 168.8379,364.8516 Q169.1191,364.8516 169.2949,364.8516 Q169.4883,364.8516 169.9453,364.8516 L170.7363,369 L169.541,369 Q169.0488,367.7695 168.3984,367.2598 Q167.7656,366.75 166.7285,366.75 Q165.4277,366.75 164.6543,368.0859 Q163.8984,369.4043 163.8984,371.4609 Q163.8984,373.7285 164.4785,374.9238 Q165.0762,376.1016 166.6582,376.1016 Q167.6953,376.1016 168.416,375.4688 Q169.1543,374.8184 169.541,373.2539 L170.7012,373.834 Q170.2617,375.8027 169.207,376.9102 Q168.1523,378 166.7109,378 Z "/><text fill="#000000" font-family="sans-serif" font-size="13.5" lengthAdjust="spacingAndGlyphs" textLength="97.875" x="182.8125" y="377.5023">ResponseEntity</text><line style="stroke: #A80036; stroke-width: 1.6875;" x1="151.3125" x2="282.9375" y1="389.25" y2="389.25"/><line style="stroke: #A80036; stroke-width: 1.6875;" x1="151.3125" x2="282.9375" y1="398.25" y2="398.25"/><!--MD5=[c8261d5bafc702804d15024ebc2d97d8]
reverse link BaseController to AlarmController--><path d="M388.5818,429.777 C388.7258,445.0264 388.8788,461.2928 389.0025,474.3878 " fill="none" id="BaseController&lt;-AlarmController" style="stroke: #A80036; stroke-width: 1.125;"/><polygon fill="none" points="380.7068,429.8243,388.3691,407.25,396.4556,429.6746,380.7068,429.8243" style="stroke: #A80036; stroke-width: 1.125;"/><!--MD5=[bf7f7a00312191d27dcefc733fac96a1]
reverse link AlarmService to AlarmServiceImpl--><path d="M657.1553,288.2632 C658.7314,309.978 660.5258,334.7066 661.8454,352.8788 " fill="none" id="AlarmService&lt;-AlarmServiceImpl" style="stroke: #A80036; stroke-width: 1.125;"/><polygon fill="none" points="649.2803,288.5479,655.506,265.5371,664.9886,287.4083,649.2803,288.5479" style="stroke: #A80036; stroke-width: 1.125;"/><!--MD5=[3d8aa8afb556e64dd103dc64fb9c455a]
link ResponseEntity to AlarmController--><path d="M254.4739,407.25 C283.2458,427.1839 322.8491,454.6215 351.6772,474.5948 " fill="none" id="ResponseEntity-AlarmController" style="stroke: #A80036; stroke-width: 1.125; stroke-dasharray: 7.0,7.0;"/><!--MD5=[94af9e92f0494d00d599e93c2024bbd0]
link AlarmStatus to AlarmServiceImpl--><path d="M342.9011,265.6766 C356.0996,275.9423 372.4965,286.659 389.25,292.5 C453.0994,314.7604 476.766,280.7584 541.125,301.5 C575.1788,312.4744 609.183,335.1578 632.7158,353.1836 " fill="none" id="AlarmStatus-AlarmServiceImpl" style="stroke: #A80036; stroke-width: 1.125; stroke-dasharray: 7.0,7.0;"/><!--MD5=[78ee4083ed3eae9f3eefcc7cd293ff05]
link AlarmSeverity to AlarmServiceImpl--><path d="M505.2769,265.5371 C540.1238,290.5144 592.569,328.1051 627.462,353.115 " fill="none" id="AlarmSeverity-AlarmServiceImpl" style="stroke: #A80036; stroke-width: 1.125; stroke-dasharray: 7.0,7.0;"/><!--MD5=[eeb13a347b736a3dc7ff9a15535ad465]
link Alarm to AlarmServiceImpl--><path d="M202.4539,265.5484 C212.1278,275.9265 224.6276,286.7636 238.5,292.5 C269.5871,305.3554 508.9579,291.654 541.125,301.5 C575.3363,311.9715 609.3236,334.71 632.8091,352.8844 " fill="none" id="Alarm-AlarmServiceImpl" style="stroke: #A80036; stroke-width: 1.125; stroke-dasharray: 7.0,7.0;"/><!--MD5=[8b0b3690ee6eb735b8bc9b5827571812]
link Alarm to AlarmController--><path d="M202.9995,266.0456 C212.6036,276.2426 224.901,286.8053 238.5,292.5 C262.3849,302.5012 453.4222,282.8396 471.375,301.5 C512.2811,344.0171 496.8,381.0094 471.375,434.25 C463.6328,450.4624 449.7829,463.9883 435.6371,474.5104 " fill="none" id="Alarm-AlarmController" style="stroke: #A80036; stroke-width: 1.125; stroke-dasharray: 7.0,7.0;"/><!--MD5=[6260e585f6d48c77cc82759e0af42238]
link AlarmServiceImpl to AlarmController--><path d="M604.188,407.25 C558.3026,427.1839 495.144,454.6215 449.1698,474.5948 " fill="none" id="AlarmServiceImpl-AlarmController" style="stroke: #A80036; stroke-width: 1.125; stroke-dasharray: 7.0,7.0;"/><!--MD5=[f79b60be92f37ee19a8f92a8cddd6428]
link AlarmMapper to AlarmServiceImpl--><path d="M851.5373,265.5371 C810.243,290.5144 748.0969,328.1051 706.7498,353.115 " fill="none" id="AlarmMapper-AlarmServiceImpl" style="stroke: #A80036; stroke-width: 1.125; stroke-dasharray: 7.0,7.0;"/><!--MD5=[2d7a0898e0e1b3a253e9b71ce9a07150]
link ServiceException to AlarmServiceImpl--><path d="M723.8014,123.9176 C727.6736,134.7998 731.5774,147.6956 733.5,159.75 C742.7914,218.0138 753.1178,236.8564 733.5,292.5 C725.3471,315.6266 708.1166,337.1265 692.8222,352.9215 " fill="none" id="ServiceException-AlarmServiceImpl" style="stroke: #A80036; stroke-width: 1.125; stroke-dasharray: 7.0,7.0;"/><!--MD5=[70e9d7ec17feae622f88749764b951dd]
link AlarmController to SwaggerConfig--><!--MD5=[faee1f366549ed58f5cb8bd6add9eefe]
link AlarmController to SecurityConfig--><!--MD5=[9f046f664b603cf952cdc1e5189f53af]
link AlarmController to TraceLoggingAspect--><!--MD5=[5190e53c8f70f0b63b69f81ae8245384]
link AlarmController to DateFormatter--><!--MD5=[f13f3bb5a66cc06b88fc7e27e43cc101]
link ServiceException to AlarmService--><!--MD5=[eeaf8005d7001dcd6d7f9e84f7210a7d]
@startuml

top to bottom direction

package com.tieto.tni.rest.controller {
    abstract class BaseController
    class AlarmController
}

package com.tieto.tni.rest.entity {
    class Alarm
    enum AlarmStatus
    enum AlarmSeverity
}

package com.tieto.tni.rest.service {
    interface AlarmService
    class AlarmServiceImpl
}

package com.tieto.tni.rest.mapper {
    interface AlarmMapper
}

package com.tieto.tni.rest.exception {
    class ServiceException
}

package com.tieto.tni.rest.docs {
    class SwaggerConfig
}

package com.tieto.tni.rest.security {
    class SecurityConfig
}

package com.tieto.tni.rest.log {
    class TraceLoggingAspect
}

package com.tieto.tni.rest.util {
    class DateFormatter
    class JwtTokenUtil
}

class ResponseEntity


BaseController <|- - AlarmController
AlarmService <|- - AlarmServiceImpl
ResponseEntity .. AlarmController
AlarmStatus .. AlarmServiceImpl
AlarmSeverity .. AlarmServiceImpl
Alarm .. AlarmServiceImpl

Alarm .. AlarmController
AlarmServiceImpl .. AlarmController
AlarmMapper .. AlarmServiceImpl
ServiceException .. AlarmServiceImpl

AlarmController -[hidden]- SwaggerConfig
AlarmController -[hidden]- SecurityConfig
AlarmController -[hidden]- TraceLoggingAspect
AlarmController -[hidden]- DateFormatter

ServiceException -[hidden]- AlarmService

@enduml

PlantUML version 1.2019.10(Sat Sep 14 04:53:03 CST 2019)
(GPL source distribution)
Java Runtime: OpenJDK Runtime Environment
JVM: OpenJDK 64-Bit Server VM
Java Version: 11.0.3+12-b304.10
Operating System: Windows 10
Default Encoding: GBK
Language: zh
Country: CN
--></g></svg>