<?xml version="1.0" encoding="UTF-8" standalone="no"?><svg xmlns="http://www.w3.org/2000/svg" xmlns:xlink="http://www.w3.org/1999/xlink" contentScriptType="application/ecmascript" contentStyleType="text/css" height="906px" preserveAspectRatio="none" style="width:818px;height:906px;" version="1.1" viewBox="0 0 818 906" width="818px" zoomAndPan="magnify"><defs><filter height="300%" id="f1sqnh04r4hjqc" width="300%" x="-1" y="-1"><feGaussianBlur result="blurOut" stdDeviation="4.0"/><feColorMatrix in="blurOut" result="blurOut2" type="matrix" values="0 0 0 0 0 0 0 0 0 0 0 0 0 0 0 0 0 0 .4 0"/><feOffset dx="8.0" dy="8.0" in="blurOut2" result="blurOut3"/><feBlend in="SourceGraphic" in2="blurOut3" mode="normal"/></filter></defs><g><line style="stroke: #A80036; stroke-width: 2.0; stroke-dasharray: 5.0,5.0;" x1="54" x2="54" y1="178.2402" y2="726.3105"/><line style="stroke: #A80036; stroke-width: 2.0; stroke-dasharray: 5.0,5.0;" x1="280" x2="280" y1="178.2402" y2="726.3105"/><line style="stroke: #A80036; stroke-width: 2.0; stroke-dasharray: 5.0,5.0;" x1="428" x2="428" y1="178.2402" y2="726.3105"/><line style="stroke: #A80036; stroke-width: 2.0; stroke-dasharray: 5.0,5.0;" x1="598" x2="598" y1="178.2402" y2="726.3105"/><line style="stroke: #A80036; stroke-width: 2.0; stroke-dasharray: 5.0,5.0;" x1="758" x2="758" y1="178.2402" y2="726.3105"/><text fill="#000000" font-family="sans-serif" font-size="28" lengthAdjust="spacingAndGlyphs" textLength="66" x="16" y="172.0879">client</text><ellipse cx="55" cy="26" fill="#FEFECE" filter="url(#f1sqnh04r4hjqc)" rx="16" ry="16" style="stroke: #A80036; stroke-width: 4.0;"/><path d="M55,42 L55,96 M29,58 L81,58 M55,96 L29,126 M55,96 L81,126 " fill="none" filter="url(#f1sqnh04r4hjqc)" style="stroke: #A80036; stroke-width: 4.0;"/><text fill="#000000" font-family="sans-serif" font-size="28" lengthAdjust="spacingAndGlyphs" textLength="66" x="16" y="756.3984">client</text><ellipse cx="55" cy="782.5508" fill="#FEFECE" filter="url(#f1sqnh04r4hjqc)" rx="16" ry="16" style="stroke: #A80036; stroke-width: 4.0;"/><path d="M55,798.5508 L55,852.5508 M29,814.5508 L81,814.5508 M55,852.5508 L29,882.5508 M55,852.5508 L81,882.5508 " fill="none" filter="url(#f1sqnh04r4hjqc)" style="stroke: #A80036; stroke-width: 4.0;"/><text fill="#000000" font-family="sans-serif" font-size="28" lengthAdjust="spacingAndGlyphs" textLength="118" x="216" y="172.0879">controller</text><path d="M240,84 L240,132 M240,108 L274,108 " fill="none" filter="url(#f1sqnh04r4hjqc)" style="stroke: #A80036; stroke-width: 4.0;"/><ellipse cx="298" cy="108" fill="#FEFECE" filter="url(#f1sqnh04r4hjqc)" rx="24" ry="24" style="stroke: #A80036; stroke-width: 4.0;"/><text fill="#000000" font-family="sans-serif" font-size="28" lengthAdjust="spacingAndGlyphs" textLength="118" x="216" y="756.3984">controller</text><path d="M240,770.5508 L240,818.5508 M240,794.5508 L274,794.5508 " fill="none" filter="url(#f1sqnh04r4hjqc)" style="stroke: #A80036; stroke-width: 4.0;"/><ellipse cx="298" cy="794.5508" fill="#FEFECE" filter="url(#f1sqnh04r4hjqc)" rx="24" ry="24" style="stroke: #A80036; stroke-width: 4.0;"/><text fill="#000000" font-family="sans-serif" font-size="28" lengthAdjust="spacingAndGlyphs" textLength="112" x="366" y="172.0879">business</text><ellipse cx="428" cy="108" fill="#FEFECE" filter="url(#f1sqnh04r4hjqc)" rx="24" ry="24" style="stroke: #A80036; stroke-width: 4.0;"/><polygon fill="#A80036" points="420,84,432,74,428,84,432,94,420,84" style="stroke: #A80036; stroke-width: 2.0;"/><text fill="#000000" font-family="sans-serif" font-size="28" lengthAdjust="spacingAndGlyphs" textLength="112" x="366" y="756.3984">business</text><ellipse cx="428" cy="794.5508" fill="#FEFECE" filter="url(#f1sqnh04r4hjqc)" rx="24" ry="24" style="stroke: #A80036; stroke-width: 4.0;"/><polygon fill="#A80036" points="420,770.5508,432,760.5508,428,770.5508,432,780.5508,420,770.5508" style="stroke: #A80036; stroke-width: 2.0;"/><text fill="#000000" font-family="sans-serif" font-size="28" lengthAdjust="spacingAndGlyphs" textLength="164" x="510" y="172.0879">dataMapping</text><ellipse cx="598" cy="108" fill="#FEFECE" filter="url(#f1sqnh04r4hjqc)" rx="24" ry="24" style="stroke: #A80036; stroke-width: 4.0;"/><line style="stroke: #A80036; stroke-width: 4.0;" x1="574" x2="622" y1="136" y2="136"/><text fill="#000000" font-family="sans-serif" font-size="28" lengthAdjust="spacingAndGlyphs" textLength="164" x="510" y="756.3984">dataMapping</text><ellipse cx="598" cy="794.5508" fill="#FEFECE" filter="url(#f1sqnh04r4hjqc)" rx="24" ry="24" style="stroke: #A80036; stroke-width: 4.0;"/><line style="stroke: #A80036; stroke-width: 4.0;" x1="574" x2="622" y1="822.5508" y2="822.5508"/><text fill="#000000" font-family="sans-serif" font-size="28" lengthAdjust="spacingAndGlyphs" textLength="38" x="733" y="172.0879">DB</text><path d="M722,68 C722,48 758,48 758,48 C758,48 794,48 794,68 L794,120 C794,140 758,140 758,140 C758,140 722,140 722,120 L722,68 " fill="#FEFECE" filter="url(#f1sqnh04r4hjqc)" style="stroke: #000000; stroke-width: 3.0;"/><path d="M722,68 C722,88 758,88 758,88 C758,88 794,88 794,68 " fill="none" style="stroke: #000000; stroke-width: 3.0;"/><text fill="#000000" font-family="sans-serif" font-size="28" lengthAdjust="spacingAndGlyphs" textLength="38" x="733" y="756.3984">DB</text><path d="M722,782.5508 C722,762.5508 758,762.5508 758,762.5508 C758,762.5508 794,762.5508 794,782.5508 L794,834.5508 C794,854.5508 758,854.5508 758,854.5508 C758,854.5508 722,854.5508 722,834.5508 L722,782.5508 " fill="#FEFECE" filter="url(#f1sqnh04r4hjqc)" style="stroke: #000000; stroke-width: 3.0;"/><path d="M722,782.5508 C722,802.5508 758,802.5508 758,802.5508 C758,802.5508 794,802.5508 794,782.5508 " fill="none" style="stroke: #000000; stroke-width: 3.0;"/><polygon fill="#A80036" points="257,237.749,277,245.749,257,253.749,265,245.749" style="stroke: #A80036; stroke-width: 2.0;"/><line style="stroke: #A80036; stroke-width: 2.0;" x1="55" x2="269" y1="245.749" y2="245.749"/><text fill="#000000" font-family="sans-serif" font-size="26" lengthAdjust="spacingAndGlyphs" textLength="158" x="69" y="236.0361">HTTP request</text><polygon fill="#A80036" points="404,301.2578,424,309.2578,404,317.2578,412,309.2578" style="stroke: #A80036; stroke-width: 2.0;"/><line style="stroke: #A80036; stroke-width: 2.0;" x1="281" x2="416" y1="309.2578" y2="309.2578"/><text fill="#000000" font-family="sans-serif" font-size="26" lengthAdjust="spacingAndGlyphs" textLength="72" x="295" y="299.5449">invoke</text><polygon fill="#A80036" points="574,364.7666,594,372.7666,574,380.7666,582,372.7666" style="stroke: #A80036; stroke-width: 2.0;"/><line style="stroke: #A80036; stroke-width: 2.0;" x1="428" x2="586" y1="372.7666" y2="372.7666"/><text fill="#000000" font-family="sans-serif" font-size="26" lengthAdjust="spacingAndGlyphs" textLength="72" x="442" y="363.0537">invoke</text><polygon fill="#A80036" points="734,428.2754,754,436.2754,734,444.2754,742,436.2754" style="stroke: #A80036; stroke-width: 2.0;"/><line style="stroke: #A80036; stroke-width: 2.0;" x1="598" x2="746" y1="436.2754" y2="436.2754"/><text fill="#000000" font-family="sans-serif" font-size="26" lengthAdjust="spacingAndGlyphs" textLength="112" x="612" y="426.5625">read/write</text><polygon fill="#A80036" points="620,491.7842,600,499.7842,620,507.7842,612,499.7842" style="stroke: #A80036; stroke-width: 2.0;"/><line style="stroke: #A80036; stroke-width: 2.0;" x1="608" x2="756" y1="499.7842" y2="499.7842"/><text fill="#000000" font-family="sans-serif" font-size="26" lengthAdjust="spacingAndGlyphs" textLength="64" x="632" y="490.0713">result</text><polygon fill="#A80036" points="450,555.293,430,563.293,450,571.293,442,563.293" style="stroke: #A80036; stroke-width: 2.0;"/><line style="stroke: #A80036; stroke-width: 2.0;" x1="438" x2="596" y1="563.293" y2="563.293"/><text fill="#000000" font-family="sans-serif" font-size="26" lengthAdjust="spacingAndGlyphs" textLength="64" x="462" y="553.5801">result</text><polygon fill="#A80036" points="303,618.8018,283,626.8018,303,634.8018,295,626.8018" style="stroke: #A80036; stroke-width: 2.0;"/><line style="stroke: #A80036; stroke-width: 2.0;" x1="291" x2="426" y1="626.8018" y2="626.8018"/><text fill="#000000" font-family="sans-serif" font-size="26" lengthAdjust="spacingAndGlyphs" textLength="64" x="315" y="617.0889">result</text><polygon fill="#A80036" points="77,682.3105,57,690.3105,77,698.3105,69,690.3105" style="stroke: #A80036; stroke-width: 2.0;"/><line style="stroke: #A80036; stroke-width: 2.0;" x1="65" x2="279" y1="690.3105" y2="690.3105"/><text fill="#000000" font-family="sans-serif" font-size="26" lengthAdjust="spacingAndGlyphs" textLength="178" x="89" y="680.5977">HTTP response</text><!--MD5=[1b8bd4d2bca2ef30093aa1456705575c]
@startuml

actor client

boundary controller
control business
entity dataMapping
database DB

client -> controller : HTTP request
controller -> business : invoke
business -> dataMapping : invoke
dataMapping -> DB : read/write

DB -> dataMapping : result
dataMapping -> business : result
business -> controller : result
controller -> client : HTTP response

@enduml

PlantUML version 1.2019.10(Sat Sep 14 04:53:03 CST 2019)
(GPL source distribution)
Java Runtime: OpenJDK Runtime Environment
JVM: OpenJDK 64-Bit Server VM
Java Version: 11.0.3+12-b304.10
Operating System: Windows 10
Default Encoding: GBK
Language: zh
Country: CN
--></g></svg>